<svg width="224" height="224" viewBox="0 0 224 224" fill="none" xmlns="http://www.w3.org/2000/svg">
<g filter="url(#filter0_d_1_39)">
<path d="M112.18 204.188C165.208 204.188 208.196 161.2 208.196 108.172C208.196 55.1439 165.208 12.156 112.18 12.156C59.1518 12.156 16.1639 55.1439 16.1639 108.172C16.1639 161.2 59.1518 204.188 112.18 204.188Z" fill="white"/>
<g style="mix-blend-mode:multiply">
<path d="M112.18 185.149C154.693 185.149 189.157 150.685 189.157 108.172C189.157 65.659 154.693 31.1954 112.18 31.1954C69.6669 31.1954 35.2033 65.659 35.2033 108.172C35.2033 150.685 69.6669 185.149 112.18 185.149Z" fill="#3F8959"/>
</g>
<path fill-rule="evenodd" clip-rule="evenodd" d="M100.293 107.573C100.293 101.209 105.453 96.0569 111.818 96.0569C118.182 96.0569 123.342 101.216 123.342 107.573C123.342 113.93 118.182 119.098 111.818 119.098C105.453 119.098 100.293 113.946 100.293 107.573Z" fill="white"/>
<path fill-rule="evenodd" clip-rule="evenodd" d="M60.9305 73.4885L95.0154 107.573L60.9305 143.58L77.2522 108.534L60.9305 73.4885Z" fill="white"/>
<path fill-rule="evenodd" clip-rule="evenodd" d="M146.864 57.411L112.779 91.4959L76.7716 57.411L111.818 73.7327L146.864 57.411Z" fill="white"/>
<path fill-rule="evenodd" clip-rule="evenodd" d="M78.2132 158.933L112.298 124.856L148.305 158.933L113.259 142.619L78.2132 158.933Z" fill="white"/>
<path fill-rule="evenodd" clip-rule="evenodd" d="M163.43 142.139L129.337 108.054L163.43 72.0548L147.108 107.093L163.43 142.139Z" fill="white"/>
<path d="M112.18 206C98.9777 206 86.1613 203.416 74.1012 198.312C62.4508 193.388 51.9897 186.33 43.0096 177.35C34.0295 168.37 26.9715 157.909 22.0482 146.259C16.9437 134.199 14.36 121.382 14.36 108.18C14.36 94.9777 16.9437 82.1614 22.0482 70.1013C26.9794 58.4508 34.0295 47.9897 43.0096 39.0097C51.9897 30.0296 62.4508 22.9715 74.1012 18.0482C86.1613 12.9437 98.9777 10.36 112.18 10.36C125.382 10.36 138.199 12.9437 150.259 18.0482C161.909 22.9715 172.37 30.0296 181.35 39.0097C190.33 47.9897 197.388 58.4508 202.312 70.1013C207.416 82.1614 210 94.9777 210 108.18C210 121.382 207.416 134.199 202.312 146.259C197.381 157.909 190.33 168.37 181.35 177.35C172.37 186.33 161.909 193.388 150.259 198.312C138.199 203.416 125.382 206 112.18 206ZM112.18 18.2452C100.041 18.2452 88.2646 20.6241 77.1734 25.3111C66.4682 29.8405 56.85 36.3235 48.5867 44.5868C40.3235 52.85 33.8405 62.4682 29.3111 73.1734C24.6241 84.2567 22.2451 96.0332 22.2451 108.18C22.2451 120.327 24.6241 132.095 29.3111 143.187C33.8405 153.892 40.3235 163.51 48.5867 171.773C56.85 180.037 66.4682 186.519 77.1734 191.049C88.2567 195.736 100.033 198.115 112.18 198.115C124.327 198.115 136.095 195.736 147.187 191.049C157.892 186.519 167.51 180.037 175.773 171.773C184.036 163.51 190.519 153.892 195.049 143.187C199.736 132.103 202.115 120.327 202.115 108.18C202.115 96.0332 199.736 84.2646 195.049 73.1734C190.519 62.4682 184.036 52.85 175.773 44.5868C167.51 36.3235 157.892 29.8405 147.187 25.3111C136.103 20.6241 124.327 18.2452 112.18 18.2452Z" fill="#3F8959"/>
</g>
<defs>
<filter id="filter0_d_1_39" x="0.359985" y="0.360001" width="223.64" height="223.64" filterUnits="userSpaceOnUse" color-interpolation-filters="sRGB">
<feFlood flood-opacity="0" result="BackgroundImageFix"/>
<feColorMatrix in="SourceAlpha" type="matrix" values="0 0 0 0 0 0 0 0 0 0 0 0 0 0 0 0 0 0 127 0" result="hardAlpha"/>
<feOffset dy="4"/>
<feGaussianBlur stdDeviation="7"/>
<feComposite in2="hardAlpha" operator="out"/>
<feColorMatrix type="matrix" values="0 0 0 0 0 0 0 0 0 0 0 0 0 0 0 0 0 0 0.4 0"/>
<feBlend mode="normal" in2="BackgroundImageFix" result="effect1_dropShadow_1_39"/>
<feBlend mode="normal" in="SourceGraphic" in2="effect1_dropShadow_1_39" result="shape"/>
</filter>
</defs>
</svg>
